<svg width="121" height="120" viewBox="0 0 121 120" fill="none" xmlns="http://www.w3.org/2000/svg">
<rect x="0.5" width="120" height="120" rx="60" fill="#023E8A"/>
<path d="M75.5834 51.2499V45.4166C75.5834 37.2499 69.1667 30.8333 61.0001 30.8333C52.8334 30.8333 46.4167 37.2499 46.4167 45.4166V51.2499C41.4584 51.2499 37.6667 55.0416 37.6667 59.9999V80.4166C37.6667 85.3749 41.4584 89.1666 46.4167 89.1666H75.5834C80.5417 89.1666 84.3334 85.3749 84.3334 80.4166V59.9999C84.3334 55.0416 80.5417 51.2499 75.5834 51.2499ZM52.2501 45.4166C52.2501 40.4583 56.0417 36.6666 61.0001 36.6666C65.9584 36.6666 69.7501 40.4583 69.7501 45.4166V51.2499H52.2501V45.4166ZM64.2084 70.2082L63.9167 70.4999V74.5832C63.9167 76.3332 62.7501 77.4999 61.0001 77.4999C59.2501 77.4999 58.0834 76.3332 58.0834 74.5832V70.4999C56.3334 68.7499 56.0417 66.1249 57.7917 64.3749C59.5417 62.6249 62.1667 62.3332 63.9167 64.0832C65.6667 65.5416 65.9584 68.4582 64.2084 70.2082Z" fill="white"/>
</svg>
