<svg width="20" height="24" viewBox="0 0 20 24" fill="none" xmlns="http://www.w3.org/2000/svg">
<path d="M9.5 23.2951V19.6951C4.49 19.4351 0.5 15.2751 0.5 10.2051C0.5 4.96508 4.76 0.705078 10 0.705078C15.24 0.705078 19.5 4.96508 19.5 10.2051C19.5 15.1551 16.06 20.1351 10.93 22.6051L9.5 23.2951ZM10 2.70508C5.86 2.70508 2.5 6.06508 2.5 10.2051C2.5 14.3451 5.86 17.7051 10 17.7051H11.5V20.0051C15.14 17.7051 17.5 13.9251 17.5 10.2051C17.5 6.06508 14.14 2.70508 10 2.70508ZM9 14.2051H11V16.2051H9V14.2051ZM11 12.7051H9C9 9.45508 12 9.70508 12 7.70508C12 6.60508 11.1 5.70508 10 5.70508C8.9 5.70508 8 6.60508 8 7.70508H6C6 5.49508 7.79 3.70508 10 3.70508C12.21 3.70508 14 5.49508 14 7.70508C14 10.2051 11 10.4551 11 12.7051Z" fill="white"/>
</svg>
