<svg width="24" height="25" viewBox="0 0 24 25" fill="none" xmlns="http://www.w3.org/2000/svg">
<path d="M20.19 4.5H4C2.9 4.5 2.01 5.4 2.01 6.5V10.5C3.11 10.5 4 11.4 4 12.5C4 13.6 3.11 14.5 2 14.5V18.5C2 19.6 2.9 20.5 4 20.5H20C21.1 20.5 22 19.6 22 18.5V6.5C22 5.4 21.19 4.5 20.19 4.5ZM20 18.5H4V15.96C5.19 15.27 6 13.97 6 12.5C6 11.02 5.2 9.73 4.01 9.04L4 6.5H20V18.5ZM8.87 16.16L7.21 13.28L8.14 13.03L9.4 14.02L11.79 13.38L9.39 9.22L10.79 8.84L14.8 12.58L17.24 11.93C17.75 11.79 18.28 12.1 18.42 12.61C18.55 13.12 18.25 13.65 17.73 13.8L8.87 16.16Z" fill="#181818"/>
</svg>
