<svg width="19" height="16" viewBox="0 0 19 16" fill="none" xmlns="http://www.w3.org/2000/svg">
<path d="M16.42 1.01C16.22 0.42 15.66 0 15 0H4C3.34 0 2.79 0.42 2.58 1.01L0.5 7V15C0.5 15.55 0.95 16 1.5 16H2.5C3.05 16 3.5 15.55 3.5 15V14H15.5V15C15.5 15.55 15.95 16 16.5 16H17.5C18.05 16 18.5 15.55 18.5 15V7L16.42 1.01ZM4.35 2H14.64L15.72 5.11H3.27L4.35 2ZM16.5 12H2.5V7H16.5V12Z" fill="#023E8A"/>
<path d="M5 11C5.82843 11 6.5 10.3284 6.5 9.5C6.5 8.67157 5.82843 8 5 8C4.17157 8 3.5 8.67157 3.5 9.5C3.5 10.3284 4.17157 11 5 11Z" fill="#023E8A"/>
<path d="M14 11C14.8284 11 15.5 10.3284 15.5 9.5C15.5 8.67157 14.8284 8 14 8C13.1716 8 12.5 8.67157 12.5 9.5C12.5 10.3284 13.1716 11 14 11Z" fill="#023E8A"/>
</svg>
