<svg width="23" height="16" viewBox="0 0 23 16" fill="none" xmlns="http://www.w3.org/2000/svg">
<path d="M6.5 9.5C8.16 9.5 9.5 8.16 9.5 6.5C9.5 4.84 8.16 3.5 6.5 3.5C4.84 3.5 3.5 4.84 3.5 6.5C3.5 8.16 4.84 9.5 6.5 9.5ZM6.5 5.5C7.05 5.5 7.5 5.95 7.5 6.5C7.5 7.05 7.05 7.5 6.5 7.5C5.95 7.5 5.5 7.05 5.5 6.5C5.5 5.95 5.95 5.5 6.5 5.5ZM18.5 2.5H10.5V10.5H2.5V0.5H0.5V15.5H2.5V12.5H20.5V15.5H22.5V6.5C22.5 4.29 20.71 2.5 18.5 2.5ZM20.5 10.5H12.5V4.5H18.5C19.6 4.5 20.5 5.4 20.5 6.5V10.5Z" fill="#2D9C5E"/>
</svg>
