<svg width="30" height="16" viewBox="0 0 30 16" fill="none" xmlns="http://www.w3.org/2000/svg">
<path d="M5 9.25C6.375 9.25 7.5 8.125 7.5 6.75C7.5 5.375 6.375 4.25 5 4.25C3.625 4.25 2.5 5.375 2.5 6.75C2.5 8.125 3.625 9.25 5 9.25ZM6.4125 10.625C5.95 10.55 5.4875 10.5 5 10.5C3.7625 10.5 2.5875 10.7625 1.525 11.225C0.6 11.625 0 12.525 0 13.5375V15.5H5.625V13.4875C5.625 12.45 5.9125 11.475 6.4125 10.625ZM25 9.25C26.375 9.25 27.5 8.125 27.5 6.75C27.5 5.375 26.375 4.25 25 4.25C23.625 4.25 22.5 5.375 22.5 6.75C22.5 8.125 23.625 9.25 25 9.25ZM30 13.5375C30 12.525 29.4 11.625 28.475 11.225C27.4125 10.7625 26.2375 10.5 25 10.5C24.5125 10.5 24.05 10.55 23.5875 10.625C24.0875 11.475 24.375 12.45 24.375 13.4875V15.5H30V13.5375ZM20.3 10.0625C18.8375 9.4125 17.0375 8.9375 15 8.9375C12.9625 8.9375 11.1625 9.425 9.7 10.0625C8.35 10.6625 7.5 12.0125 7.5 13.4875V15.5H22.5V13.4875C22.5 12.0125 21.65 10.6625 20.3 10.0625ZM10.0875 13C10.2 12.7125 10.25 12.5125 11.225 12.1375C12.4375 11.6625 13.7125 11.4375 15 11.4375C16.2875 11.4375 17.5625 11.6625 18.775 12.1375C19.7375 12.5125 19.7875 12.7125 19.9125 13H10.0875ZM15 3C15.6875 3 16.25 3.5625 16.25 4.25C16.25 4.9375 15.6875 5.5 15 5.5C14.3125 5.5 13.75 4.9375 13.75 4.25C13.75 3.5625 14.3125 3 15 3ZM15 0.5C12.925 0.5 11.25 2.175 11.25 4.25C11.25 6.325 12.925 8 15 8C17.075 8 18.75 6.325 18.75 4.25C18.75 2.175 17.075 0.5 15 0.5Z" fill="#26824E"/>
</svg>
