<svg width="12" height="20" viewBox="0 0 12 20" fill="none" xmlns="http://www.w3.org/2000/svg">
<path d="M4.12871 6.99832V13.7413C4.1365 14.2344 4.33784 14.7046 4.68928 15.0505C5.04073 15.3965 5.51409 15.5904 6.00723 15.5904C6.50036 15.5904 6.97373 15.3965 7.32517 15.0505C7.67661 14.7046 7.87795 14.2344 7.88574 13.7413L7.89183 4.90301C7.89695 4.48157 7.81836 4.06331 7.66062 3.67247C7.50288 3.28163 7.26913 2.92599 6.97292 2.62616C6.6767 2.32634 6.32392 2.08829 5.93503 1.92582C5.54613 1.76335 5.12885 1.67969 4.70738 1.67969C4.28591 1.67969 3.86863 1.76335 3.47974 1.92582C3.09084 2.08829 2.73806 2.32634 2.44185 2.62616C2.14564 2.92599 1.91189 3.28163 1.75415 3.67247C1.59641 4.06331 1.51782 4.48157 1.52293 4.90301V13.8008C1.51434 14.3941 1.62379 14.9833 1.8449 15.5339C2.06602 16.0845 2.39439 16.5857 2.81093 17.0084C3.22747 17.431 3.72386 17.7666 4.27125 17.9956C4.81864 18.2247 5.40611 18.3426 5.99949 18.3426C6.59288 18.3426 7.18034 18.2247 7.72773 17.9956C8.27512 17.7666 8.77151 17.431 9.18805 17.0084C9.60459 16.5857 9.93296 16.0845 10.1541 15.5339C10.3752 14.9833 10.4846 14.3941 10.4761 13.8008V5.48614" stroke="#181818" stroke-width="2" stroke-miterlimit="10" stroke-linecap="round"/>
</svg>
