<svg width="131" height="130" viewBox="0 0 131 130" fill="none" xmlns="http://www.w3.org/2000/svg">
<path d="M65.5 0C29.6594 0 0.5 29.1594 0.5 65C0.5 100.841 29.6594 130 65.5 130C101.341 130 130.5 100.841 130.5 65C130.5 29.1594 101.341 0 65.5 0ZM99.3281 43.2156L57.3281 93.2156C56.8674 93.7644 56.2941 94.2077 55.6471 94.5156C55.0001 94.8234 54.2945 94.9886 53.5781 95H53.4938C52.7929 94.9997 52.1 94.8522 51.4599 94.5668C50.8198 94.2815 50.2468 93.8648 49.7781 93.3438L31.7781 73.3438C31.321 72.8589 30.9654 72.2876 30.7322 71.6633C30.499 71.0391 30.393 70.3745 30.4203 69.7087C30.4477 69.0429 30.6078 68.3892 30.8914 67.7862C31.1749 67.1832 31.5761 66.6429 32.0715 66.1971C32.5668 65.7514 33.1462 65.4091 33.7757 65.1905C34.4052 64.9719 35.0721 64.8813 35.7371 64.924C36.4021 64.9668 37.0518 65.1421 37.6481 65.4396C38.2444 65.737 38.7752 66.1507 39.2094 66.6562L53.3625 82.3812L91.6719 36.7844C92.5312 35.7909 93.747 35.1754 95.0564 35.0711C96.3658 34.9668 97.6637 35.3819 98.6695 36.2268C99.6753 37.0716 100.308 38.2784 100.431 39.5862C100.555 40.894 100.158 42.1977 99.3281 43.2156Z" fill="#023E8A"/>
</svg>
