<svg width="24" height="24" viewBox="0 0 24 24" fill="none" xmlns="http://www.w3.org/2000/svg">
<path d="M19.5 3H18.75V2.27109C18.75 1.8675 18.4397 1.52109 18.0361 1.50094C17.9347 1.49605 17.8333 1.51181 17.7382 1.54724C17.6431 1.58268 17.5561 1.63707 17.4826 1.7071C17.4091 1.77714 17.3506 1.86137 17.3106 1.95469C17.2706 2.04801 17.25 2.14848 17.25 2.25V3H6.75V2.27109C6.75 1.8675 6.43969 1.52109 6.03609 1.50094C5.93469 1.49605 5.83334 1.51181 5.7382 1.54724C5.64307 1.58268 5.55611 1.63707 5.48261 1.7071C5.40911 1.77714 5.3506 1.86137 5.31062 1.95469C5.27063 2.04801 5.25001 2.14848 5.25 2.25V3H4.5C3.70435 3 2.94129 3.31607 2.37868 3.87868C1.81607 4.44129 1.5 5.20435 1.5 6V19.5C1.5 20.2956 1.81607 21.0587 2.37868 21.6213C2.94129 22.1839 3.70435 22.5 4.5 22.5H19.5C20.2956 22.5 21.0587 22.1839 21.6213 21.6213C22.1839 21.0587 22.5 20.2956 22.5 19.5V6C22.5 5.20435 22.1839 4.44129 21.6213 3.87868C21.0587 3.31607 20.2956 3 19.5 3ZM6.375 19.5C6.1525 19.5 5.93499 19.434 5.74998 19.3104C5.56498 19.1868 5.42078 19.0111 5.33564 18.8055C5.25049 18.6 5.22821 18.3738 5.27162 18.1555C5.31502 17.9373 5.42217 17.7368 5.5795 17.5795C5.73684 17.4222 5.93729 17.315 6.15552 17.2716C6.37375 17.2282 6.59995 17.2505 6.80552 17.3356C7.01109 17.4208 7.18679 17.565 7.3104 17.75C7.43402 17.935 7.5 18.1525 7.5 18.375C7.5 18.6734 7.38147 18.9595 7.1705 19.1705C6.95952 19.3815 6.67337 19.5 6.375 19.5ZM6.375 15.75C6.1525 15.75 5.93499 15.684 5.74998 15.5604C5.56498 15.4368 5.42078 15.2611 5.33564 15.0555C5.25049 14.85 5.22821 14.6238 5.27162 14.4055C5.31502 14.1873 5.42217 13.9868 5.5795 13.8295C5.73684 13.6722 5.93729 13.565 6.15552 13.5216C6.37375 13.4782 6.59995 13.5005 6.80552 13.5856C7.01109 13.6708 7.18679 13.815 7.3104 14C7.43402 14.185 7.5 14.4025 7.5 14.625C7.5 14.9234 7.38147 15.2095 7.1705 15.4205C6.95952 15.6315 6.67337 15.75 6.375 15.75ZM10.125 19.5C9.9025 19.5 9.68499 19.434 9.49998 19.3104C9.31498 19.1868 9.17078 19.0111 9.08564 18.8055C9.00049 18.6 8.97821 18.3738 9.02162 18.1555C9.06502 17.9373 9.17217 17.7368 9.3295 17.5795C9.48684 17.4222 9.68729 17.315 9.90552 17.2716C10.1238 17.2282 10.35 17.2505 10.5555 17.3356C10.7611 17.4208 10.9368 17.565 11.0604 17.75C11.184 17.935 11.25 18.1525 11.25 18.375C11.25 18.6734 11.1315 18.9595 10.9205 19.1705C10.7095 19.3815 10.4234 19.5 10.125 19.5ZM10.125 15.75C9.9025 15.75 9.68499 15.684 9.49998 15.5604C9.31498 15.4368 9.17078 15.2611 9.08564 15.0555C9.00049 14.85 8.97821 14.6238 9.02162 14.4055C9.06502 14.1873 9.17217 13.9868 9.3295 13.8295C9.48684 13.6722 9.68729 13.565 9.90552 13.5216C10.1238 13.4782 10.35 13.5005 10.5555 13.5856C10.7611 13.6708 10.9368 13.815 11.0604 14C11.184 14.185 11.25 14.4025 11.25 14.625C11.25 14.9234 11.1315 15.2095 10.9205 15.4205C10.7095 15.6315 10.4234 15.75 10.125 15.75ZM13.875 19.5C13.6525 19.5 13.435 19.434 13.25 19.3104C13.065 19.1868 12.9208 19.0111 12.8356 18.8055C12.7505 18.6 12.7282 18.3738 12.7716 18.1555C12.815 17.9373 12.9222 17.7368 13.0795 17.5795C13.2368 17.4222 13.4373 17.315 13.6555 17.2716C13.8738 17.2282 14.1 17.2505 14.3055 17.3356C14.5111 17.4208 14.6868 17.565 14.8104 17.75C14.934 17.935 15 18.1525 15 18.375C15 18.6734 14.8815 18.9595 14.6705 19.1705C14.4595 19.3815 14.1734 19.5 13.875 19.5ZM13.875 15.75C13.6525 15.75 13.435 15.684 13.25 15.5604C13.065 15.4368 12.9208 15.2611 12.8356 15.0555C12.7505 14.85 12.7282 14.6238 12.7716 14.4055C12.815 14.1873 12.9222 13.9868 13.0795 13.8295C13.2368 13.6722 13.4373 13.565 13.6555 13.5216C13.8738 13.4782 14.1 13.5005 14.3055 13.5856C14.5111 13.6708 14.6868 13.815 14.8104 14C14.934 14.185 15 14.4025 15 14.625C15 14.9234 14.8815 15.2095 14.6705 15.4205C14.4595 15.6315 14.1734 15.75 13.875 15.75ZM13.875 12C13.6525 12 13.435 11.934 13.25 11.8104C13.065 11.6868 12.9208 11.5111 12.8356 11.3055C12.7505 11.1 12.7282 10.8738 12.7716 10.6555C12.815 10.4373 12.9222 10.2368 13.0795 10.0795C13.2368 9.92217 13.4373 9.81502 13.6555 9.77162C13.8738 9.72821 14.1 9.75049 14.3055 9.83564C14.5111 9.92078 14.6868 10.065 14.8104 10.25C14.934 10.435 15 10.6525 15 10.875C15 11.1734 14.8815 11.4595 14.6705 11.6705C14.4595 11.8815 14.1734 12 13.875 12ZM17.625 15.75C17.4025 15.75 17.185 15.684 17 15.5604C16.815 15.4368 16.6708 15.2611 16.5856 15.0555C16.5005 14.85 16.4782 14.6238 16.5216 14.4055C16.565 14.1873 16.6722 13.9868 16.8295 13.8295C16.9868 13.6722 17.1873 13.565 17.4055 13.5216C17.6238 13.4782 17.85 13.5005 18.0555 13.5856C18.2611 13.6708 18.4368 13.815 18.5604 14C18.684 14.185 18.75 14.4025 18.75 14.625C18.75 14.9234 18.6315 15.2095 18.4205 15.4205C18.2095 15.6315 17.9234 15.75 17.625 15.75ZM17.625 12C17.4025 12 17.185 11.934 17 11.8104C16.815 11.6868 16.6708 11.5111 16.5856 11.3055C16.5005 11.1 16.4782 10.8738 16.5216 10.6555C16.565 10.4373 16.6722 10.2368 16.8295 10.0795C16.9868 9.92217 17.1873 9.81502 17.4055 9.77162C17.6238 9.72821 17.85 9.75049 18.0555 9.83564C18.2611 9.92078 18.4368 10.065 18.5604 10.25C18.684 10.435 18.75 10.6525 18.75 10.875C18.75 11.1734 18.6315 11.4595 18.4205 11.6705C18.2095 11.8815 17.9234 12 17.625 12ZM21 6.375V7.125C21 7.22446 20.9605 7.31984 20.8902 7.39017C20.8198 7.46049 20.7245 7.5 20.625 7.5H3.375C3.27554 7.5 3.18016 7.46049 3.10984 7.39017C3.03951 7.31984 3 7.22446 3 7.125V6C3.00111 5.60252 3.15951 5.22163 3.44057 4.94057C3.72163 4.65951 4.10252 4.50111 4.5 4.5H19.5C19.8975 4.50111 20.2784 4.65951 20.5594 4.94057C20.8405 5.22163 20.9989 5.60252 21 6V6.375Z" fill="#333333"/>
</svg>
