<svg width="17" height="17" viewBox="0 0 17 17" fill="none" xmlns="http://www.w3.org/2000/svg">
<path d="M16.5 1.5C16.5 1.23478 16.3946 0.98043 16.2071 0.792893C16.0196 0.605357 15.7652 0.5 15.5 0.5H10.5C10.2348 0.5 9.98043 0.605357 9.79289 0.792893C9.60536 0.98043 9.5 1.23478 9.5 1.5C9.5 1.76522 9.60536 2.01957 9.79289 2.20711C9.98043 2.39464 10.2348 2.5 10.5 2.5H13.07L9.79 5.79C9.69627 5.88296 9.62188 5.99356 9.57111 6.11542C9.52034 6.23728 9.4942 6.36799 9.4942 6.5C9.4942 6.63201 9.52034 6.76272 9.57111 6.88458C9.62188 7.00644 9.69627 7.11704 9.79 7.21C9.88296 7.30373 9.99356 7.37812 10.1154 7.42889C10.2373 7.47966 10.368 7.5058 10.5 7.5058C10.632 7.5058 10.7627 7.47966 10.8846 7.42889C11.0064 7.37812 11.117 7.30373 11.21 7.21L14.5 3.92V6.5C14.5 6.76522 14.6054 7.01957 14.7929 7.20711C14.9804 7.39464 15.2348 7.5 15.5 7.5C15.7652 7.5 16.0196 7.39464 16.2071 7.20711C16.3946 7.01957 16.5 6.76522 16.5 6.5V1.5ZM7.21 9.79C7.11704 9.69627 7.00644 9.62188 6.88458 9.57111C6.76272 9.52034 6.63201 9.4942 6.5 9.4942C6.36799 9.4942 6.23728 9.52034 6.11542 9.57111C5.99356 9.62188 5.88296 9.69627 5.79 9.79L2.5 13.07V10.5C2.5 10.2348 2.39464 9.98043 2.20711 9.79289C2.01957 9.60536 1.76522 9.5 1.5 9.5C1.23478 9.5 0.98043 9.60536 0.792893 9.79289C0.605357 9.98043 0.5 10.2348 0.5 10.5V15.5C0.5 15.7652 0.605357 16.0196 0.792893 16.2071C0.98043 16.3946 1.23478 16.5 1.5 16.5H6.5C6.76522 16.5 7.01957 16.3946 7.20711 16.2071C7.39464 16.0196 7.5 15.7652 7.5 15.5C7.5 15.2348 7.39464 14.9804 7.20711 14.7929C7.01957 14.6054 6.76522 14.5 6.5 14.5H3.92L7.21 11.21C7.30373 11.117 7.37812 11.0064 7.42889 10.8846C7.47966 10.7627 7.5058 10.632 7.5058 10.5C7.5058 10.368 7.47966 10.2373 7.42889 10.1154C7.37812 9.99356 7.30373 9.88296 7.21 9.79Z" fill="#181818"/>
</svg>
