<svg width="24" height="25" viewBox="0 0 24 25" fill="none" xmlns="http://www.w3.org/2000/svg">
<path d="M6.375 17.0556H11.25V9.86638L8.78016 12.3358C8.63836 12.4705 8.44955 12.5445 8.25397 12.542C8.0584 12.5395 7.87155 12.4607 7.73325 12.3224C7.59495 12.1841 7.51614 11.9972 7.51364 11.8016C7.51113 11.6061 7.58513 11.4172 7.71984 11.2754L11.4698 7.52545C11.6105 7.3849 11.8012 7.30595 12 7.30595C12.1988 7.30595 12.3895 7.3849 12.5302 7.52545L16.2802 11.2754C16.4149 11.4172 16.4889 11.6061 16.4864 11.8016C16.4839 11.9972 16.4051 12.1841 16.2668 12.3224C16.1285 12.4607 15.9416 12.5395 15.746 12.542C15.5505 12.5445 15.3616 12.4705 15.2198 12.3358L12.75 9.86638V17.0556H17.625C18.321 17.0549 18.9882 16.7781 19.4803 16.2859C19.9725 15.7938 20.2493 15.1266 20.25 14.4306V4.6806C20.2493 3.98464 19.9725 3.31739 19.4803 2.82527C18.9882 2.33315 18.321 2.05635 17.625 2.0556L6.375 2.0556C5.67904 2.05635 5.01179 2.33315 4.51967 2.82527C4.02755 3.31739 3.75074 3.98464 3.75 4.6806V14.4306C3.75074 15.1266 4.02755 15.7938 4.51967 16.2859C5.01179 16.7781 5.67904 17.0549 6.375 17.0556Z" fill="#FF6F1E"/>
<path d="M11.25 22.3056C11.25 22.5045 11.329 22.6953 11.4697 22.8359C11.6103 22.9766 11.8011 23.0556 12 23.0556C12.1989 23.0556 12.3897 22.9766 12.5303 22.8359C12.671 22.6953 12.75 22.5045 12.75 22.3056V17.0556H11.25V22.3056Z" fill="#FF6F1E"/>
</svg>
