<svg width="40" height="40" viewBox="0 0 40 40" fill="none" xmlns="http://www.w3.org/2000/svg">
<rect width="40" height="40" rx="20" fill="#FFCFB4"/>
<path d="M28.19 12H12C10.9 12 10.01 12.9 10.01 14V18C11.11 18 12 18.9 12 20C12 21.1 11.11 22 10 22V26C10 27.1 10.9 28 12 28H28C29.1 28 30 27.1 30 26V14C30 12.9 29.19 12 28.19 12ZM28 26H12V23.46C13.19 22.77 14 21.47 14 20C14 18.52 13.2 17.23 12.01 16.54L12 14H28V26ZM16.87 23.66L15.21 20.78L16.14 20.53L17.4 21.52L19.79 20.88L17.39 16.72L18.79 16.34L22.8 20.08L25.24 19.43C25.75 19.29 26.28 19.6 26.42 20.11C26.55 20.62 26.25 21.15 25.73 21.3L16.87 23.66Z" fill="#FF6F1E"/>
</svg>
