<svg width="24" height="24" viewBox="0 0 24 24" fill="none" xmlns="http://www.w3.org/2000/svg">
<path d="M12 2.00012C6.48 2.00012 2 6.48012 2 12.0001C2 17.5201 6.48 22.0001 12 22.0001C17.52 22.0001 22 17.5201 22 12.0001C22 6.48012 17.52 2.00012 12 2.00012ZM12 20.0001C7.59 20.0001 4 16.4101 4 12.0001C4 7.59012 7.59 4.00012 12 4.00012C16.41 4.00012 20 7.59012 20 12.0001C20 16.4101 16.41 20.0001 12 20.0001ZM12.31 11.1401C10.54 10.6901 9.97 10.2001 9.97 9.47012C9.97 8.63012 10.76 8.04012 12.07 8.04012C13.45 8.04012 13.97 8.70012 14.01 9.68012H15.72C15.67 8.34012 14.85 7.11012 13.23 6.71012V5.00012H10.9V6.69012C9.39 7.01012 8.18 7.99012 8.18 9.50012C8.18 11.2901 9.67 12.1901 11.84 12.7101C13.79 13.1701 14.18 13.8601 14.18 14.5801C14.18 15.1101 13.79 15.9701 12.08 15.9701C10.48 15.9701 9.85 15.2501 9.76 14.3301H8.04C8.14 16.0301 9.4 16.9901 10.9 17.3001V19.0001H13.24V17.3301C14.76 17.0401 15.96 16.1701 15.97 14.5601C15.96 12.3601 14.07 11.6001 12.31 11.1401Z" fill="#2D9C5E"/>
</svg>
