<svg width="16" height="21" viewBox="0 0 16 21" fill="none" xmlns="http://www.w3.org/2000/svg">
<path d="M5.00011 8.00001C5.01047 7.20758 5.32986 6.45052 5.89024 5.89014C6.45062 5.32976 7.20768 5.01037 8.00011 5.00001C8.79253 5.01037 9.54959 5.32976 10.11 5.89014C10.6704 6.45052 10.9897 7.20758 11.0001 8.00001C10.9897 8.79243 10.6704 9.54949 10.11 10.1099C9.54959 10.6702 8.79253 10.9896 8.00011 11C7.20768 10.9896 6.45062 10.6702 5.89024 10.1099C5.32986 9.54949 5.01047 8.79243 5.00011 8.00001ZM8.00011 17L12.0001 18V14.92C10.7938 15.6465 9.40813 16.0206 8.00011 16C6.59208 16.0206 5.20643 15.6465 4.00011 14.92V18M8.00011 2.00001C7.21208 1.98563 6.42943 2.13257 5.70027 2.4318C4.97112 2.73102 4.31087 3.17622 3.76011 3.74001C3.19022 4.29137 2.73988 4.95411 2.4371 5.68698C2.13431 6.41985 1.98557 7.20718 2.00011 8.00001C1.98969 8.78781 2.14044 9.56942 2.4431 10.2968C2.74576 11.0243 3.19394 11.6821 3.76011 12.23C4.3083 12.7992 4.9674 13.25 5.69668 13.5544C6.42595 13.8588 7.20991 14.0105 8.00011 14C8.79031 14.0105 9.57426 13.8588 10.3035 13.5544C11.0328 13.25 11.6919 12.7992 12.2401 12.23C12.8063 11.6821 13.2545 11.0243 13.5571 10.2968C13.8598 9.56942 14.0105 8.78781 14.0001 8.00001C14.0146 7.20718 13.8659 6.41985 13.5631 5.68698C13.2603 4.95411 12.81 4.29137 12.2401 3.74001C11.6893 3.17622 11.0291 2.73102 10.2999 2.4318C9.57079 2.13257 8.78814 1.98563 8.00011 2.00001ZM16.0001 8.00001C15.9797 8.95998 15.7866 9.90844 15.4301 10.8C15.1105 11.7078 14.6257 12.5486 14.0001 13.28V21L8.00011 19L2.00011 21V13.28C0.705796 11.8265 -0.00639275 9.94628 0.000106447 8.00001C-0.0175184 6.95059 0.180143 5.9087 0.580889 4.93865C0.981634 3.96861 1.57696 3.091 2.33011 2.36001C3.06381 1.6001 3.94547 0.998639 4.92067 0.592736C5.89587 0.186833 6.94391 -0.0148942 8.00011 6.25046e-06C9.0563 -0.0148942 10.1043 0.186833 11.0795 0.592736C12.0547 0.998639 12.9364 1.6001 13.6701 2.36001C14.4233 3.091 15.0186 3.96861 15.4193 4.93865C15.8201 5.9087 16.0177 6.95059 16.0001 8.00001Z" fill="black"/>
</svg>
