<svg width="20" height="20" viewBox="0 0 20 20" fill="none" xmlns="http://www.w3.org/2000/svg">
<path d="M17.6822 10.98C17.7222 10.66 17.7522 10.34 17.7522 10C17.7522 9.66 17.7222 9.34 17.6822 9.02L19.7922 7.37C19.9822 7.22 20.0322 6.95 19.9122 6.73L17.9122 3.27C17.8222 3.11 17.6522 3.02 17.4722 3.02C17.4122 3.02 17.3522 3.03 17.3022 3.05L14.8122 4.05C14.2922 3.65 13.7322 3.32 13.1222 3.07L12.7422 0.42C12.7122 0.18 12.5022 0 12.2522 0H8.25222C8.00222 0 7.79222 0.18 7.76222 0.42L7.38222 3.07C6.77222 3.32 6.21222 3.66 5.69222 4.05L3.20222 3.05C3.14222 3.03 3.08222 3.02 3.02222 3.02C2.85222 3.02 2.68222 3.11 2.59222 3.27L0.59222 6.73C0.46222 6.95 0.52222 7.22 0.71222 7.37L2.82222 9.02C2.78222 9.34 2.75222 9.67 2.75222 10C2.75222 10.33 2.78222 10.66 2.82222 10.98L0.71222 12.63C0.52222 12.78 0.47222 13.05 0.59222 13.27L2.59222 16.73C2.68222 16.89 2.85222 16.98 3.03222 16.98C3.09222 16.98 3.15222 16.97 3.20222 16.95L5.69222 15.95C6.21222 16.35 6.77222 16.68 7.38222 16.93L7.76222 19.58C7.79222 19.82 8.00222 20 8.25222 20H12.2522C12.5022 20 12.7122 19.82 12.7422 19.58L13.1222 16.93C13.7322 16.68 14.2922 16.34 14.8122 15.95L17.3022 16.95C17.3622 16.97 17.4222 16.98 17.4822 16.98C17.6522 16.98 17.8222 16.89 17.9122 16.73L19.9122 13.27C20.0322 13.05 19.9822 12.78 19.7922 12.63L17.6822 10.98ZM15.7022 9.27C15.7422 9.58 15.7522 9.79 15.7522 10C15.7522 10.21 15.7322 10.43 15.7022 10.73L15.5622 11.86L16.4522 12.56L17.5322 13.4L16.8322 14.61L15.5622 14.1L14.5222 13.68L13.6222 14.36C13.1922 14.68 12.7822 14.92 12.3722 15.09L11.3122 15.52L11.1522 16.65L10.9522 18H9.55222L9.20222 15.52L8.14222 15.09C7.71222 14.91 7.31222 14.68 6.91222 14.38L6.00222 13.68L4.94222 14.11L3.67222 14.62L2.97222 13.41L4.05222 12.57L4.94222 11.87L4.80222 10.74C4.77222 10.43 4.75222 10.2 4.75222 10C4.75222 9.8 4.77222 9.57 4.80222 9.27L4.94222 8.14L4.05222 7.44L2.97222 6.6L3.67222 5.39L4.94222 5.9L5.98222 6.32L6.88222 5.64C7.31222 5.32 7.72222 5.08 8.13222 4.91L9.19222 4.48L9.35222 3.35L9.55222 2H10.9422L11.2922 4.48L12.3522 4.91C12.7822 5.09 13.1822 5.32 13.5822 5.62L14.4922 6.32L15.5522 5.89L16.8222 5.38L17.5222 6.59L16.4522 7.44L15.5622 8.14L15.7022 9.27ZM10.2522 6C8.04222 6 6.25222 7.79 6.25222 10C6.25222 12.21 8.04222 14 10.2522 14C12.4622 14 14.2522 12.21 14.2522 10C14.2522 7.79 12.4622 6 10.2522 6ZM10.2522 12C9.15222 12 8.25222 11.1 8.25222 10C8.25222 8.9 9.15222 8 10.2522 8C11.3522 8 12.2522 8.9 12.2522 10C12.2522 11.1 11.3522 12 10.2522 12Z" fill="#023E8A"/>
</svg>
