<svg width="130" height="130" viewBox="0 0 130 130" fill="none" xmlns="http://www.w3.org/2000/svg">
<path d="M65 0C29.1594 0 0 29.1594 0 65C0 100.841 29.1594 130 65 130C100.841 130 130 100.841 130 65C130 29.1594 100.841 0 65 0ZM98.8281 43.2156L56.8281 93.2156C56.3674 93.7644 55.7941 94.2077 55.1471 94.5156C54.5001 94.8234 53.7945 94.9886 53.0781 95H52.9938C52.2929 94.9997 51.6 94.8522 50.9599 94.5668C50.3198 94.2815 49.7468 93.8648 49.2781 93.3438L31.2781 73.3438C30.821 72.8589 30.4654 72.2876 30.2322 71.6633C29.999 71.0391 29.893 70.3745 29.9203 69.7087C29.9477 69.0429 30.1078 68.3892 30.3914 67.7862C30.6749 67.1832 31.0761 66.6429 31.5715 66.1971C32.0668 65.7514 32.6462 65.4091 33.2757 65.1905C33.9052 64.9719 34.5721 64.8813 35.2371 64.924C35.9021 64.9668 36.5518 65.1421 37.1481 65.4396C37.7444 65.737 38.2752 66.1507 38.7094 66.6562L52.8625 82.3812L91.1719 36.7844C92.0312 35.7909 93.247 35.1754 94.5564 35.0711C95.8658 34.9668 97.1637 35.3819 98.1695 36.2268C99.1753 37.0716 99.8083 38.2784 99.9315 39.5862C100.055 40.894 99.6584 42.1977 98.8281 43.2156Z" fill="#2D9C5E"/>
</svg>
