<svg width="19" height="22" viewBox="0 0 19 22" fill="none" xmlns="http://www.w3.org/2000/svg">
<path d="M17.75 3.5H13.25V2.375C13.25 1.87772 13.0525 1.40081 12.7008 1.04917C12.3492 0.697544 11.8723 0.5 11.375 0.5H7.625C7.12772 0.5 6.65081 0.697544 6.29917 1.04917C5.94754 1.40081 5.75 1.87772 5.75 2.375V3.5H1.25C1.05109 3.5 0.860322 3.57902 0.71967 3.71967C0.579018 3.86032 0.5 4.05109 0.5 4.25C0.5 4.44891 0.579018 4.63968 0.71967 4.78033C0.860322 4.92098 1.05109 5 1.25 5H2.04688L2.9375 19.2931C3.00406 20.5517 3.96875 21.5 5.1875 21.5H13.8125C15.0373 21.5 15.9828 20.5728 16.0625 19.2969L16.9531 5H17.75C17.9489 5 18.1397 4.92098 18.2803 4.78033C18.421 4.63968 18.5 4.44891 18.5 4.25C18.5 4.05109 18.421 3.86032 18.2803 3.71967C18.1397 3.57902 17.9489 3.5 17.75 3.5ZM6.52672 18.5H6.5C6.30563 18.5001 6.11881 18.4248 5.9789 18.2899C5.83899 18.1549 5.75692 17.971 5.75 17.7767L5.375 7.27672C5.36791 7.07781 5.44014 6.88423 5.57578 6.73856C5.71142 6.5929 5.89937 6.50709 6.09828 6.5C6.29719 6.49291 6.49077 6.56514 6.63644 6.70078C6.7821 6.83642 6.86791 7.02437 6.875 7.22328L7.25 17.7233C7.25357 17.8218 7.23769 17.92 7.20326 18.0124C7.16884 18.1048 7.11654 18.1894 7.04937 18.2616C6.98219 18.3337 6.90146 18.3919 6.81178 18.4328C6.7221 18.4737 6.62523 18.4966 6.52672 18.5ZM10.25 17.75C10.25 17.9489 10.171 18.1397 10.0303 18.2803C9.88968 18.421 9.69891 18.5 9.5 18.5C9.30109 18.5 9.11032 18.421 8.96967 18.2803C8.82902 18.1397 8.75 17.9489 8.75 17.75V7.25C8.75 7.05109 8.82902 6.86032 8.96967 6.71967C9.11032 6.57902 9.30109 6.5 9.5 6.5C9.69891 6.5 9.88968 6.57902 10.0303 6.71967C10.171 6.86032 10.25 7.05109 10.25 7.25V17.75ZM11.75 3.5H7.25V2.375C7.24943 2.3256 7.25875 2.27658 7.27739 2.23083C7.29604 2.18507 7.32364 2.14351 7.35857 2.10858C7.39351 2.07364 7.43507 2.04604 7.48083 2.02739C7.52658 2.00875 7.5756 1.99943 7.625 2H11.375C11.4244 1.99943 11.4734 2.00875 11.5192 2.02739C11.5649 2.04604 11.6065 2.07364 11.6414 2.10858C11.6764 2.14351 11.704 2.18507 11.7226 2.23083C11.7413 2.27658 11.7506 2.3256 11.75 2.375V3.5ZM13.25 17.7767C13.2431 17.971 13.161 18.1549 13.0211 18.2899C12.8812 18.4248 12.6944 18.5001 12.5 18.5H12.4728C12.3743 18.4965 12.2775 18.4736 12.1879 18.4327C12.0983 18.3917 12.0176 18.3335 11.9505 18.2614C11.8833 18.1893 11.8311 18.1046 11.7967 18.0123C11.7623 17.92 11.7464 17.8217 11.75 17.7233L12.125 7.22328C12.1285 7.12479 12.1514 7.02795 12.1923 6.9383C12.2332 6.84865 12.2914 6.76794 12.3636 6.70078C12.4357 6.63361 12.5203 6.58132 12.6127 6.54687C12.705 6.51242 12.8032 6.49649 12.9017 6.5C13.0002 6.50351 13.097 6.52638 13.1867 6.56732C13.2763 6.60825 13.3571 6.66644 13.4242 6.73856C13.4914 6.81069 13.5437 6.89534 13.5781 6.98767C13.6126 7.08001 13.6285 7.17823 13.625 7.27672L13.25 17.7767Z" fill="white"/>
</svg>
